<?xml version="1.0" encoding="UTF-8" standalone="no"?>
<!DOCTYPE svg PUBLIC "-//W3C//DTD SVG 1.1//EN"
 "http://www.w3.org/Graphics/SVG/1.1/DTD/svg11.dtd">
<!-- Generated by graphviz version 2.40.1 (20161225.0304)
 -->
<!-- Title: Tree Pages: 1 -->
<svg width="1124pt" height="414pt"
 viewBox="0.00 0.00 1124.29 414.00" xmlns="http://www.w3.org/2000/svg" xmlns:xlink="http://www.w3.org/1999/xlink">
<g id="graph0" class="graph" transform="scale(1 1) rotate(0) translate(4 410)">
<title>Tree</title>
<polygon fill="#ffffff" stroke="transparent" points="-4,4 -4,-410 1120.29,-410 1120.29,4 -4,4"/>
<!-- 0 -->
<g id="node1" class="node">
<title>0</title>
<path fill="#e58139" fill-opacity="0.635294" stroke="#000000" d="M601.8823,-406C601.8823,-406 414.9986,-406 414.9986,-406 408.9986,-406 402.9986,-400 402.9986,-394 402.9986,-394 402.9986,-340 402.9986,-340 402.9986,-334 408.9986,-328 414.9986,-328 414.9986,-328 601.8823,-328 601.8823,-328 607.8823,-328 613.8823,-334 613.8823,-340 613.8823,-340 613.8823,-394 613.8823,-394 613.8823,-400 607.8823,-406 601.8823,-406"/>
<text text-anchor="start" x="411.2197" y="-390.8" font-family="Helvetica,sans-Serif" font-size="14.00" fill="#000000">Contract_Month&#45;to&#45;month ≤ 0.5</text>
<text text-anchor="start" x="472.0493" y="-376.8" font-family="Helvetica,sans-Serif" font-size="14.00" fill="#000000">gini = 0.392</text>
<text text-anchor="start" x="458.8252" y="-362.8" font-family="Helvetica,sans-Serif" font-size="14.00" fill="#000000">samples = 5274</text>
<text text-anchor="start" x="445.3208" y="-348.8" font-family="Helvetica,sans-Serif" font-size="14.00" fill="#000000">value = [3863, 1411]</text>
<text text-anchor="start" x="480.6216" y="-334.8" font-family="Helvetica,sans-Serif" font-size="14.00" fill="#000000">class = 0</text>
</g>
<!-- 1 -->
<g id="node2" class="node">
<title>1</title>
<path fill="#e58139" fill-opacity="0.929412" stroke="#000000" d="M460.8756,-292C460.8756,-292 316.0053,-292 316.0053,-292 310.0053,-292 304.0053,-286 304.0053,-280 304.0053,-280 304.0053,-226 304.0053,-226 304.0053,-220 310.0053,-214 316.0053,-214 316.0053,-214 460.8756,-214 460.8756,-214 466.8756,-214 472.8756,-220 472.8756,-226 472.8756,-226 472.8756,-280 472.8756,-280 472.8756,-286 466.8756,-292 460.8756,-292"/>
<text text-anchor="start" x="312.2231" y="-276.8" font-family="Helvetica,sans-Serif" font-size="14.00" fill="#000000">MonthlyCharges ≤ 0.962</text>
<text text-anchor="start" x="352.0493" y="-262.8" font-family="Helvetica,sans-Serif" font-size="14.00" fill="#000000">gini = 0.122</text>
<text text-anchor="start" x="338.8252" y="-248.8" font-family="Helvetica,sans-Serif" font-size="14.00" fill="#000000">samples = 2376</text>
<text text-anchor="start" x="328.6978" y="-234.8" font-family="Helvetica,sans-Serif" font-size="14.00" fill="#000000">value = [2221, 155]</text>
<text text-anchor="start" x="360.6216" y="-220.8" font-family="Helvetica,sans-Serif" font-size="14.00" fill="#000000">class = 0</text>
</g>
<!-- 0&#45;&gt;1 -->
<g id="edge1" class="edge">
<title>0&#45;&gt;1</title>
<path fill="none" stroke="#000000" d="M467.1432,-327.7677C457.5268,-318.632 447.1981,-308.8198 437.2899,-299.407"/>
<polygon fill="#000000" stroke="#000000" points="439.4744,-296.6547 429.8137,-292.3046 434.6531,-301.7297 439.4744,-296.6547"/>
<text text-anchor="middle" x="430.4546" y="-313.0964" font-family="Helvetica,sans-Serif" font-size="14.00" fill="#000000">True</text>
</g>
<!-- 8 -->
<g id="node9" class="node">
<title>8</title>
<path fill="#e58139" fill-opacity="0.235294" stroke="#000000" d="M784.6681,-292C784.6681,-292 590.2128,-292 590.2128,-292 584.2128,-292 578.2128,-286 578.2128,-280 578.2128,-280 578.2128,-226 578.2128,-226 578.2128,-220 584.2128,-214 590.2128,-214 590.2128,-214 784.6681,-214 784.6681,-214 790.6681,-214 796.6681,-220 796.6681,-226 796.6681,-226 796.6681,-280 796.6681,-280 796.6681,-286 790.6681,-292 784.6681,-292"/>
<text text-anchor="start" x="586.3267" y="-276.8" font-family="Helvetica,sans-Serif" font-size="14.00" fill="#000000">InternetService_Fiber optic ≤ 0.5</text>
<text text-anchor="start" x="651.0493" y="-262.8" font-family="Helvetica,sans-Serif" font-size="14.00" fill="#000000">gini = 0.491</text>
<text text-anchor="start" x="637.8252" y="-248.8" font-family="Helvetica,sans-Serif" font-size="14.00" fill="#000000">samples = 2898</text>
<text text-anchor="start" x="623.8047" y="-234.8" font-family="Helvetica,sans-Serif" font-size="14.00" fill="#000000">value = [1642, 1256]</text>
<text text-anchor="start" x="659.6216" y="-220.8" font-family="Helvetica,sans-Serif" font-size="14.00" fill="#000000">class = 0</text>
</g>
<!-- 0&#45;&gt;8 -->
<g id="edge8" class="edge">
<title>0&#45;&gt;8</title>
<path fill="none" stroke="#000000" d="M569.7916,-327.9272C585.1621,-318.1381 601.7658,-307.5637 617.5186,-297.5312"/>
<polygon fill="#000000" stroke="#000000" points="619.6148,-300.3458 626.1694,-292.0218 615.8546,-294.4415 619.6148,-300.3458"/>
<text text-anchor="middle" x="620.7549" y="-312.2284" font-family="Helvetica,sans-Serif" font-size="14.00" fill="#000000">False</text>
</g>
<!-- 2 -->
<g id="node3" class="node">
<title>2</title>
<path fill="#e58139" fill-opacity="0.964706" stroke="#000000" d="M269.1476,-178C269.1476,-178 123.7333,-178 123.7333,-178 117.7333,-178 111.7333,-172 111.7333,-166 111.7333,-166 111.7333,-112 111.7333,-112 111.7333,-106 117.7333,-100 123.7333,-100 123.7333,-100 269.1476,-100 269.1476,-100 275.1476,-100 281.1476,-106 281.1476,-112 281.1476,-112 281.1476,-166 281.1476,-166 281.1476,-172 275.1476,-178 269.1476,-178"/>
<text text-anchor="start" x="119.8369" y="-162.8" font-family="Helvetica,sans-Serif" font-size="14.00" fill="#000000">Contract_One year ≤ 0.5</text>
<text text-anchor="start" x="160.0493" y="-148.8" font-family="Helvetica,sans-Serif" font-size="14.00" fill="#000000">gini = 0.068</text>
<text text-anchor="start" x="146.8252" y="-134.8" font-family="Helvetica,sans-Serif" font-size="14.00" fill="#000000">samples = 1787</text>
<text text-anchor="start" x="140.5908" y="-120.8" font-family="Helvetica,sans-Serif" font-size="14.00" fill="#000000">value = [1724, 63]</text>
<text text-anchor="start" x="168.6216" y="-106.8" font-family="Helvetica,sans-Serif" font-size="14.00" fill="#000000">class = 0</text>
</g>
<!-- 1&#45;&gt;2 -->
<g id="edge2" class="edge">
<title>1&#45;&gt;2</title>
<path fill="none" stroke="#000000" d="M322.6335,-213.9272C305.9941,-204.0475 288.0073,-193.3678 270.9713,-183.2527"/>
<polygon fill="#000000" stroke="#000000" points="272.5468,-180.1177 262.1613,-178.0218 268.973,-186.1367 272.5468,-180.1177"/>
</g>
<!-- 5 -->
<g id="node6" class="node">
<title>5</title>
<path fill="#e58139" fill-opacity="0.815686" stroke="#000000" d="M450.9268,-178C450.9268,-178 325.9541,-178 325.9541,-178 319.9541,-178 313.9541,-172 313.9541,-166 313.9541,-166 313.9541,-112 313.9541,-112 313.9541,-106 319.9541,-100 325.9541,-100 325.9541,-100 450.9268,-100 450.9268,-100 456.9268,-100 462.9268,-106 462.9268,-112 462.9268,-112 462.9268,-166 462.9268,-166 462.9268,-172 456.9268,-178 450.9268,-178"/>
<text text-anchor="start" x="321.9473" y="-162.8" font-family="Helvetica,sans-Serif" font-size="14.00" fill="#000000">TotalCharges ≤ 1.908</text>
<text text-anchor="start" x="352.0493" y="-148.8" font-family="Helvetica,sans-Serif" font-size="14.00" fill="#000000">gini = 0.264</text>
<text text-anchor="start" x="342.7183" y="-134.8" font-family="Helvetica,sans-Serif" font-size="14.00" fill="#000000">samples = 589</text>
<text text-anchor="start" x="336.4839" y="-120.8" font-family="Helvetica,sans-Serif" font-size="14.00" fill="#000000">value = [497, 92]</text>
<text text-anchor="start" x="360.6216" y="-106.8" font-family="Helvetica,sans-Serif" font-size="14.00" fill="#000000">class = 0</text>
</g>
<!-- 1&#45;&gt;5 -->
<g id="edge5" class="edge">
<title>1&#45;&gt;5</title>
<path fill="none" stroke="#000000" d="M388.4404,-213.7677C388.4404,-205.6172 388.4404,-196.9283 388.4404,-188.4649"/>
<polygon fill="#000000" stroke="#000000" points="391.9405,-188.3046 388.4404,-178.3046 384.9405,-188.3047 391.9405,-188.3046"/>
</g>
<!-- 3 -->
<g id="node4" class="node">
<title>3</title>
<path fill="#e58139" fill-opacity="0.988235" stroke="#000000" d="M106.8213,-64C106.8213,-64 12.0595,-64 12.0595,-64 6.0595,-64 .0595,-58 .0595,-52 .0595,-52 .0595,-12 .0595,-12 .0595,-6 6.0595,0 12.0595,0 12.0595,0 106.8213,0 106.8213,0 112.8213,0 118.8213,-6 118.8213,-12 118.8213,-12 118.8213,-52 118.8213,-52 118.8213,-58 112.8213,-64 106.8213,-64"/>
<text text-anchor="start" x="23.0493" y="-48.8" font-family="Helvetica,sans-Serif" font-size="14.00" fill="#000000">gini = 0.022</text>
<text text-anchor="start" x="13.7183" y="-34.8" font-family="Helvetica,sans-Serif" font-size="14.00" fill="#000000">samples = 978</text>
<text text-anchor="start" x="8" y="-20.8" font-family="Helvetica,sans-Serif" font-size="14.00" fill="#000000">value = [967, 11]</text>
<text text-anchor="start" x="31.6216" y="-6.8" font-family="Helvetica,sans-Serif" font-size="14.00" fill="#000000">class = 0</text>
</g>
<!-- 2&#45;&gt;3 -->
<g id="edge3" class="edge">
<title>2&#45;&gt;3</title>
<path fill="none" stroke="#000000" d="M146.2046,-99.7647C133.9263,-90.1751 120.8034,-79.9258 108.5771,-70.3768"/>
<polygon fill="#000000" stroke="#000000" points="110.7256,-67.6138 100.6901,-64.2169 106.4168,-73.1306 110.7256,-67.6138"/>
</g>
<!-- 4 -->
<g id="node5" class="node">
<title>4</title>
<path fill="#e58139" fill-opacity="0.929412" stroke="#000000" d="M244.3535,-64C244.3535,-64 148.5273,-64 148.5273,-64 142.5273,-64 136.5273,-58 136.5273,-52 136.5273,-52 136.5273,-12 136.5273,-12 136.5273,-6 142.5273,0 148.5273,0 148.5273,0 244.3535,0 244.3535,0 250.3535,0 256.3535,-6 256.3535,-12 256.3535,-12 256.3535,-52 256.3535,-52 256.3535,-58 250.3535,-64 244.3535,-64"/>
<text text-anchor="start" x="163.9424" y="-48.8" font-family="Helvetica,sans-Serif" font-size="14.00" fill="#000000">gini = 0.12</text>
<text text-anchor="start" x="150.7183" y="-34.8" font-family="Helvetica,sans-Serif" font-size="14.00" fill="#000000">samples = 809</text>
<text text-anchor="start" x="144.4839" y="-20.8" font-family="Helvetica,sans-Serif" font-size="14.00" fill="#000000">value = [757, 52]</text>
<text text-anchor="start" x="168.6216" y="-6.8" font-family="Helvetica,sans-Serif" font-size="14.00" fill="#000000">class = 0</text>
</g>
<!-- 2&#45;&gt;4 -->
<g id="edge4" class="edge">
<title>2&#45;&gt;4</title>
<path fill="none" stroke="#000000" d="M196.4404,-99.7647C196.4404,-91.4537 196.4404,-82.6472 196.4404,-74.2305"/>
<polygon fill="#000000" stroke="#000000" points="199.9405,-74.2168 196.4404,-64.2169 192.9405,-74.2169 199.9405,-74.2168"/>
</g>
<!-- 6 -->
<g id="node7" class="node">
<title>6</title>
<path fill="#e58139" fill-opacity="0.698039" stroke="#000000" d="M382.3535,-64C382.3535,-64 286.5273,-64 286.5273,-64 280.5273,-64 274.5273,-58 274.5273,-52 274.5273,-52 274.5273,-12 274.5273,-12 274.5273,-6 280.5273,0 286.5273,0 286.5273,0 382.3535,0 382.3535,0 388.3535,0 394.3535,-6 394.3535,-12 394.3535,-12 394.3535,-52 394.3535,-52 394.3535,-58 388.3535,-64 382.3535,-64"/>
<text text-anchor="start" x="298.0493" y="-48.8" font-family="Helvetica,sans-Serif" font-size="14.00" fill="#000000">gini = 0.357</text>
<text text-anchor="start" x="288.7183" y="-34.8" font-family="Helvetica,sans-Serif" font-size="14.00" fill="#000000">samples = 279</text>
<text text-anchor="start" x="282.4839" y="-20.8" font-family="Helvetica,sans-Serif" font-size="14.00" fill="#000000">value = [214, 65]</text>
<text text-anchor="start" x="306.6216" y="-6.8" font-family="Helvetica,sans-Serif" font-size="14.00" fill="#000000">class = 0</text>
</g>
<!-- 5&#45;&gt;6 -->
<g id="edge6" class="edge">
<title>5&#45;&gt;6</title>
<path fill="none" stroke="#000000" d="M368.6395,-99.7647C364.3068,-91.1797 359.7074,-82.066 355.3336,-73.3994"/>
<polygon fill="#000000" stroke="#000000" points="358.3296,-71.5675 350.6994,-64.2169 352.0803,-74.7213 358.3296,-71.5675"/>
</g>
<!-- 7 -->
<g id="node8" class="node">
<title>7</title>
<path fill="#e58139" fill-opacity="0.905882" stroke="#000000" d="M520.3535,-64C520.3535,-64 424.5273,-64 424.5273,-64 418.5273,-64 412.5273,-58 412.5273,-52 412.5273,-52 412.5273,-12 412.5273,-12 412.5273,-6 418.5273,0 424.5273,0 424.5273,0 520.3535,0 520.3535,0 526.3535,0 532.3535,-6 532.3535,-12 532.3535,-12 532.3535,-52 532.3535,-52 532.3535,-58 526.3535,-64 520.3535,-64"/>
<text text-anchor="start" x="436.0493" y="-48.8" font-family="Helvetica,sans-Serif" font-size="14.00" fill="#000000">gini = 0.159</text>
<text text-anchor="start" x="426.7183" y="-34.8" font-family="Helvetica,sans-Serif" font-size="14.00" fill="#000000">samples = 310</text>
<text text-anchor="start" x="420.4839" y="-20.8" font-family="Helvetica,sans-Serif" font-size="14.00" fill="#000000">value = [283, 27]</text>
<text text-anchor="start" x="444.6216" y="-6.8" font-family="Helvetica,sans-Serif" font-size="14.00" fill="#000000">class = 0</text>
</g>
<!-- 5&#45;&gt;7 -->
<g id="edge7" class="edge">
<title>5&#45;&gt;7</title>
<path fill="none" stroke="#000000" d="M419.242,-99.7647C426.2684,-90.8144 433.7459,-81.2894 440.8065,-72.2955"/>
<polygon fill="#000000" stroke="#000000" points="443.7267,-74.2439 447.1487,-64.2169 438.2207,-69.9214 443.7267,-74.2439"/>
</g>
<!-- 9 -->
<g id="node10" class="node">
<title>9</title>
<path fill="#e58139" fill-opacity="0.607843" stroke="#000000" d="M739.14,-178C739.14,-178 635.7409,-178 635.7409,-178 629.7409,-178 623.7409,-172 623.7409,-166 623.7409,-166 623.7409,-112 623.7409,-112 623.7409,-106 629.7409,-100 635.7409,-100 635.7409,-100 739.14,-100 739.14,-100 745.14,-100 751.14,-106 751.14,-112 751.14,-112 751.14,-166 751.14,-166 751.14,-172 745.14,-178 739.14,-178"/>
<text text-anchor="start" x="640.0127" y="-162.8" font-family="Helvetica,sans-Serif" font-size="14.00" fill="#000000">tenure ≤ &#45;1.176</text>
<text text-anchor="start" x="651.0493" y="-148.8" font-family="Helvetica,sans-Serif" font-size="14.00" fill="#000000">gini = 0.404</text>
<text text-anchor="start" x="637.8252" y="-134.8" font-family="Helvetica,sans-Serif" font-size="14.00" fill="#000000">samples = 1304</text>
<text text-anchor="start" x="631.5908" y="-120.8" font-family="Helvetica,sans-Serif" font-size="14.00" fill="#000000">value = [937, 367]</text>
<text text-anchor="start" x="659.6216" y="-106.8" font-family="Helvetica,sans-Serif" font-size="14.00" fill="#000000">class = 0</text>
</g>
<!-- 8&#45;&gt;9 -->
<g id="edge9" class="edge">
<title>8&#45;&gt;9</title>
<path fill="none" stroke="#000000" d="M687.4404,-213.7677C687.4404,-205.6172 687.4404,-196.9283 687.4404,-188.4649"/>
<polygon fill="#000000" stroke="#000000" points="690.9405,-188.3046 687.4404,-178.3046 683.9405,-188.3047 690.9405,-188.3046"/>
</g>
<!-- 12 -->
<g id="node13" class="node">
<title>12</title>
<path fill="#399de5" fill-opacity="0.207843" stroke="#000000" d="M958.14,-178C958.14,-178 854.7409,-178 854.7409,-178 848.7409,-178 842.7409,-172 842.7409,-166 842.7409,-166 842.7409,-112 842.7409,-112 842.7409,-106 848.7409,-100 854.7409,-100 854.7409,-100 958.14,-100 958.14,-100 964.14,-100 970.14,-106 970.14,-112 970.14,-112 970.14,-166 970.14,-166 970.14,-172 964.14,-178 958.14,-178"/>
<text text-anchor="start" x="859.0127" y="-162.8" font-family="Helvetica,sans-Serif" font-size="14.00" fill="#000000">tenure ≤ &#45;0.687</text>
<text text-anchor="start" x="870.0493" y="-148.8" font-family="Helvetica,sans-Serif" font-size="14.00" fill="#000000">gini = 0.493</text>
<text text-anchor="start" x="856.8252" y="-134.8" font-family="Helvetica,sans-Serif" font-size="14.00" fill="#000000">samples = 1594</text>
<text text-anchor="start" x="850.5908" y="-120.8" font-family="Helvetica,sans-Serif" font-size="14.00" fill="#000000">value = [705, 889]</text>
<text text-anchor="start" x="878.6216" y="-106.8" font-family="Helvetica,sans-Serif" font-size="14.00" fill="#000000">class = 1</text>
</g>
<!-- 8&#45;&gt;12 -->
<g id="edge12" class="edge">
<title>8&#45;&gt;12</title>
<path fill="none" stroke="#000000" d="M762.5014,-213.9272C785.4566,-201.9779 810.6598,-188.8584 833.4736,-176.9828"/>
<polygon fill="#000000" stroke="#000000" points="835.1674,-180.0469 842.4215,-172.3249 831.9352,-173.8378 835.1674,-180.0469"/>
</g>
<!-- 10 -->
<g id="node11" class="node">
<title>10</title>
<path fill="#e58139" fill-opacity="0.164706" stroke="#000000" d="M666.14,-64C666.14,-64 562.7409,-64 562.7409,-64 556.7409,-64 550.7409,-58 550.7409,-52 550.7409,-52 550.7409,-12 550.7409,-12 550.7409,-6 556.7409,0 562.7409,0 562.7409,0 666.14,0 666.14,0 672.14,0 678.14,-6 678.14,-12 678.14,-12 678.14,-52 678.14,-52 678.14,-58 672.14,-64 666.14,-64"/>
<text text-anchor="start" x="578.0493" y="-48.8" font-family="Helvetica,sans-Serif" font-size="14.00" fill="#000000">gini = 0.496</text>
<text text-anchor="start" x="568.7183" y="-34.8" font-family="Helvetica,sans-Serif" font-size="14.00" fill="#000000">samples = 435</text>
<text text-anchor="start" x="558.5908" y="-20.8" font-family="Helvetica,sans-Serif" font-size="14.00" fill="#000000">value = [237, 198]</text>
<text text-anchor="start" x="586.6216" y="-6.8" font-family="Helvetica,sans-Serif" font-size="14.00" fill="#000000">class = 0</text>
</g>
<!-- 9&#45;&gt;10 -->
<g id="edge10" class="edge">
<title>9&#45;&gt;10</title>
<path fill="none" stroke="#000000" d="M660.6724,-99.7647C654.6284,-90.9057 648.2004,-81.4838 642.1197,-72.571"/>
<polygon fill="#000000" stroke="#000000" points="644.9472,-70.505 636.4202,-64.2169 639.1647,-74.4501 644.9472,-70.505"/>
</g>
<!-- 11 -->
<g id="node12" class="node">
<title>11</title>
<path fill="#e58139" fill-opacity="0.756863" stroke="#000000" d="M812.14,-64C812.14,-64 708.7409,-64 708.7409,-64 702.7409,-64 696.7409,-58 696.7409,-52 696.7409,-52 696.7409,-12 696.7409,-12 696.7409,-6 702.7409,0 708.7409,0 708.7409,0 812.14,0 812.14,0 818.14,0 824.14,-6 824.14,-12 824.14,-12 824.14,-52 824.14,-52 824.14,-58 818.14,-64 812.14,-64"/>
<text text-anchor="start" x="724.0493" y="-48.8" font-family="Helvetica,sans-Serif" font-size="14.00" fill="#000000">gini = 0.313</text>
<text text-anchor="start" x="714.7183" y="-34.8" font-family="Helvetica,sans-Serif" font-size="14.00" fill="#000000">samples = 869</text>
<text text-anchor="start" x="704.5908" y="-20.8" font-family="Helvetica,sans-Serif" font-size="14.00" fill="#000000">value = [700, 169]</text>
<text text-anchor="start" x="732.6216" y="-6.8" font-family="Helvetica,sans-Serif" font-size="14.00" fill="#000000">class = 0</text>
</g>
<!-- 9&#45;&gt;11 -->
<g id="edge11" class="edge">
<title>9&#45;&gt;11</title>
<path fill="none" stroke="#000000" d="M714.2084,-99.7647C720.2524,-90.9057 726.6805,-81.4838 732.7611,-72.571"/>
<polygon fill="#000000" stroke="#000000" points="735.7161,-74.4501 738.4607,-64.2169 729.9337,-70.505 735.7161,-74.4501"/>
</g>
<!-- 13 -->
<g id="node14" class="node">
<title>13</title>
<path fill="#399de5" fill-opacity="0.564706" stroke="#000000" d="M958.14,-64C958.14,-64 854.7409,-64 854.7409,-64 848.7409,-64 842.7409,-58 842.7409,-52 842.7409,-52 842.7409,-12 842.7409,-12 842.7409,-6 848.7409,0 854.7409,0 854.7409,0 958.14,0 958.14,0 964.14,0 970.14,-6 970.14,-12 970.14,-12 970.14,-52 970.14,-52 970.14,-58 964.14,-64 958.14,-64"/>
<text text-anchor="start" x="870.0493" y="-48.8" font-family="Helvetica,sans-Serif" font-size="14.00" fill="#000000">gini = 0.422</text>
<text text-anchor="start" x="860.7183" y="-34.8" font-family="Helvetica,sans-Serif" font-size="14.00" fill="#000000">samples = 787</text>
<text text-anchor="start" x="850.5908" y="-20.8" font-family="Helvetica,sans-Serif" font-size="14.00" fill="#000000">value = [238, 549]</text>
<text text-anchor="start" x="878.6216" y="-6.8" font-family="Helvetica,sans-Serif" font-size="14.00" fill="#000000">class = 1</text>
</g>
<!-- 12&#45;&gt;13 -->
<g id="edge13" class="edge">
<title>12&#45;&gt;13</title>
<path fill="none" stroke="#000000" d="M906.4404,-99.7647C906.4404,-91.4537 906.4404,-82.6472 906.4404,-74.2305"/>
<polygon fill="#000000" stroke="#000000" points="909.9405,-74.2168 906.4404,-64.2169 902.9405,-74.2169 909.9405,-74.2168"/>
</g>
<!-- 14 -->
<g id="node15" class="node">
<title>14</title>
<path fill="#e58139" fill-opacity="0.270588" stroke="#000000" d="M1104.14,-64C1104.14,-64 1000.7409,-64 1000.7409,-64 994.7409,-64 988.7409,-58 988.7409,-52 988.7409,-52 988.7409,-12 988.7409,-12 988.7409,-6 994.7409,0 1000.7409,0 1000.7409,0 1104.14,0 1104.14,0 1110.14,0 1116.14,-6 1116.14,-12 1116.14,-12 1116.14,-52 1116.14,-52 1116.14,-58 1110.14,-64 1104.14,-64"/>
<text text-anchor="start" x="1016.0493" y="-48.8" font-family="Helvetica,sans-Serif" font-size="14.00" fill="#000000">gini = 0.488</text>
<text text-anchor="start" x="1006.7183" y="-34.8" font-family="Helvetica,sans-Serif" font-size="14.00" fill="#000000">samples = 807</text>
<text text-anchor="start" x="996.5908" y="-20.8" font-family="Helvetica,sans-Serif" font-size="14.00" fill="#000000">value = [467, 340]</text>
<text text-anchor="start" x="1024.6216" y="-6.8" font-family="Helvetica,sans-Serif" font-size="14.00" fill="#000000">class = 0</text>
</g>
<!-- 12&#45;&gt;14 -->
<g id="edge14" class="edge">
<title>12&#45;&gt;14</title>
<path fill="none" stroke="#000000" d="M959.9764,-99.7647C973.0613,-90.1751 987.0463,-79.9258 1000.0758,-70.3768"/>
<polygon fill="#000000" stroke="#000000" points="1002.4841,-72.9512 1008.481,-64.2169 998.3462,-67.3051 1002.4841,-72.9512"/>
</g>
</g>
</svg>
